# AST/ASF file generated using VICON BodyLanguage
# -----------------------------------------------
:version 1.10
:name VICON
:units
  mass 1.0
  length 0.45
  angle deg
:documentation
   .ast/.asf automatically generated from VICON data using
   VICON BodyBuilder and BodyLanguage model FoxedUp or BRILLIANT.MOD
:root
   order TX TY TZ RX RY RZ
   axis XYZ
   position 0 0 0  
   orientation 0 0 0 
:bonedata
  begin
     id 1 
     name lhipjoint
     direction 0.625129 -0.738222 0.253461 
     length 2.5165 
     axis 0 0 0  XYZ
  end
  begin
     id 2 
     name lfemur
     direction 0.34202 -0.939693 0  
     length 7.54288  
     axis 0 0 20  XYZ
    dof rx ry rz
    limits (-160.0 20.0)
           (-70.0 70.0)
           (-60.0 70.0)
  end
  begin
     id 3 
     name ltibia
     direction 0.34202 -0.939693 0   
     length 7.71864   
     axis 0 0 20   XYZ
    dof rx
    limits (-10.0 170.0)
  end
  begin
     id 4 
     name lfoot
     direction 0.0772037 -0.212115 0.97419   
     length 2.18429   
     axis -90 7.62852e-016 20   XYZ
    dof rx rz
    limits (-45.0 90.0)
           (-70.0 20.0)
  end
  begin
     id 5 
     name ltoes
     direction 1.53513e-011 -4.21834e-011 1   
     length 1.09718   
     axis -90 7.62852e-016 20   XYZ
    dof rx
    limits (-90.0 20.0)
  end
  begin
     id 6 
     name rhipjoint
     direction -0.621946 -0.740623 0.254285   
     length 2.50835  
     axis 0 0 0  XYZ 
  end
  begin
     id 7 
     name rfemur
     direction -0.34202 -0.939693 0   
     length 7.43366   
     axis 0 0 -20   XYZ
    dof rx ry rz
    limits (-160.0 20.0)
           (-70.0 70.0)
           (-70.0 60.0)
  end
  begin
     id 8 
     name rtibia
     direction -0.34202 -0.939693 0   
     length 7.77122   
     axis 0 0 -20   XYZ
    dof rx
    limits (-10.0 170.0)
 end
 begin
     id 9 
     name rfoot
     direction -0.082694 -0.2272 0.970331   
     length 2.2293  
     axis -90 -7.62852e-016 -20   XYZ
    dof rx rz
    limits (-45.0 90.0)
           (-20.0 70.0)
  end
  begin
     id 10 
     name rtoes
     direction -1.53565e-011 -4.21695e-011 1   
     length 1.1178   
     axis -90 -7.62852e-016 -20   XYZ
    dof rx
    limits (-90.0 20.0)
  end
  begin
     id 11 
     name lowerback
     direction -0.000695208 0.988391 -0.151929   
     length 1.95077   
     axis 0 0 0   XYZ
    dof rx ry rz
    limits (-20.0 45.0)
           (-30.0 30.0)
           (-30.0 30.0)
  end
  begin
     id 12 
     name upperback
     direction -0.00268925 0.999885 -0.0149203   
     length 1.96246   
     axis 0 0 0   XYZ
    dof rx ry rz
    limits (-20.0 45.0)
           (-30.0 30.0)
           (-30.0 30.0)
  end
  begin
     id 13 
     name thorax
     direction -0.000848408 0.998481 0.0550912   
     length 2.00867   
     axis 0 0 0   XYZ
    dof rx ry rz
    limits (-20.0 45.0)
           (-30.0 30.0)
           (-30.0 30.0)
  end
  begin
     id 14 
     name lowerneck
     direction -0.00577709 0.998999 0.0443608   
     length 1.75762   
     axis 0 0 0   XYZ
    dof rx ry rz
    limits (-20.0 45.0)
           (-30.0 30.0)
           (-30.0 30.0)
  end
  begin
     id 15 
     name upperneck
     direction 0.0320945 0.999136 0.0264105   
     length 1.72601   
     axis 0 0 0   XYZ
    dof rx ry rz
    limits (-20.0 45.0)
           (-30.0 30.0)
           (-30.0 30.0)
  end
  begin
     id 16
     name head
     direction 0.0120552 0.999916 0.00480151  
     length 1.79973  
     axis 0 0 0   XYZ
    dof rx ry rz
    limits (-20.0 45.0)
           (-30.0 30.0)
           (-30.0 30.0)
  end
  begin
     id 17 
     name lclavicle
     direction 0.909 0.371533 -0.188897  
     length 3.47956  
     axis 0 0 0   XYZ
    dof ry rz
    limits (-20.0 10.0)
           (0.0 20.0)
  end
  begin
     id 18 
     name lhumerus
     direction 1 -4.48963e-011 -6.48352e-028   
     length 5.52302   
     axis 180 -30 -90   XYZ
    dof rx ry rz
    limits (-60.0 90.0)
           (-90.0 90.0)
           (-90.0 90.0)
  end
  begin
     id 19
     name lradius
     direction 1 -4.48968e-011 -4.78536e-027   
     length 3.58675   
     axis 180 -30 -90   XYZ
    dof rx
    limits (-10.0 170.0)
  end
  begin
     id 20
     name lwrist
     direction 1 -4.48942e-011 -9.9435e-027   
     length 1.79337   
     axis 8.54312e-015 90 90   XYZ
    dof ry
    limits (-180.0 0.0)
 end
  begin
     id 21 
     name lhand
     direction 1 -4.4904e-011 -1.9887e-026   
     length 0.536412   
     axis 1.26896e-014 90 90   XYZ
    dof rx rz
    limits (-90.0 90.0)
           (-45.0 45.0)
  end
  begin
     id 22 
     name lfingers
     direction 1 -4.48893e-011 -3.9774e-026   
     length 0.432469   
     axis 2.53792e-014 90 90   XYZ
    dof rx
    limits (0.0 90.0)
  end
  begin
     id 23
     name lthumb
     direction 0.707107 -6.34934e-011 0.707107   
     length 0.620942   
     axis -90 45 2.85299e-015   XYZ
    dof rx rz
    limits (-45.0 45.0)
           (-45.0 45.0)
  end
  begin
     id 24 
     name rclavicle
     direction -0.89595 0.416672 -0.153813   
     length 3.44099  
     axis 0 0 0   XYZ 
    dof ry rz
    limits (-10.0 20.0)
           (-20.0 0.0)
  end
  begin
     id 25 
     name rhumerus
     direction -1 -4.48952e-011 5.57804e-028  
     length 5.8478   
     axis 180 30 90   XYZ
    dof rx ry rz
    limits (-90.0 60.0)
           (-90.0 90.0)
           (-90.0 90.0)
  end
  begin
     id 26 
     name rradius
     direction -1 -4.48967e-011 -7.93646e-027   
     length 3.62717   
     axis 180 30 90   XYZ
    dof rx
    limits (-10.0 170.0)
  end
  begin
     id 27 
     name rwrist
     direction -1 -4.49008e-011 -9.9435e-027   
     length 1.81359   
     axis 8.54312e-015 -90 -90   XYZ
    dof ry
    limits (-180.0 0.0)
  end
  begin
     id 28
     name rhand
     direction -1 -4.48812e-011 -1.9887e-026   
     length 0.650516   
     axis 1.26896e-014 -90 -90   XYZ
    dof rx rz
    limits (-90.0 90.0)
           (-45.0 45.0)
  end
  begin
     id 29
     name rfingers
     direction -1 -4.49228e-011 -3.9774e-026   
     length 0.524463   
     axis 2.53792e-014 -90 -90   XYZ
    dof rx
    limits (0.0 90.0)
  end
  begin
     id 30
     name rthumb
     direction -0.707107 -6.34912e-011 0.707107   
     length 0.753027   
     axis -90 -45 -2.85299e-015   XYZ
    dof rx rz
    limits (-45.0 45.0)
           (-45.0 45.0)
  end
:hierarchy
  begin
    root lhipjoint rhipjoint lowerback
    lhipjoint lfemur
    lfemur ltibia
    ltibia lfoot
    lfoot ltoes
    rhipjoint rfemur
    rfemur rtibia
    rtibia rfoot
    rfoot rtoes
    lowerback upperback
    upperback thorax
    thorax lowerneck lclavicle rclavicle
    lowerneck upperneck
    upperneck head
    lclavicle lhumerus
    lhumerus lradius
    lradius lwrist
    lwrist lhand lthumb
    lhand lfingers
    rclavicle rhumerus
    rhumerus rradius
    rradius rwrist
    rwrist rhand rthumb
    rhand rfingers
  end

#!OML:ASF F:\VICON\USERDATA\INSTALL\rory3\rory3.ASF
:FULLY-SPECIFIED
:DEGREES
600
root 13.2665 18.0131 41.2708 -172.902 18.7686 -173.802
lowerback 9.46943 -0.33817 7.10746
upperback 3.09705 0.480588 0.752
thorax -2.0371 0.355523 -3.27152
lowerneck -3.03949 -3.61765 1.88396
upperneck 24.4313 -3.50235 -0.168012
head 7.9851 -0.869879 -0.552329
rclavicle 1.04362e-015 -3.57812e-015
rhumerus -26.3922 -9.15159 -73.8807
rradius 28.7504
rwrist 15.5715
rhand -22.875 25.2715
rfingers 7.12502
rthumb 3.56382 -4.6785
lclavicle 1.04362e-015 -3.57812e-015
lhumerus -21.6226 -11.369 79.4185
lradius 16.1262
lwrist 34.5326
lhand -38.8523 36.8056
lfingers 7.12502
lthumb -11.8613 66.4496
rfemur -4.08601 12.074 25.5021
rtibia 23.4121
rfoot -11.7994 -10.0311
rtoes -11.6574
lfemur -30.1227 2.533 -14.4267
ltibia 51.0742
lfoot -7.1378 -5.56523
ltoes -14.6657
601
root 13.302 18.013 41.1599 -172.909 18.1755 -174.002
lowerback 9.49097 -0.393068 6.96381
upperback 2.93962 0.391033 0.746111
thorax -2.22402 0.295618 -3.18824
lowerneck -2.62718 -3.57553 1.607
upperneck 24.4351 -3.38607 -0.026361
head 7.92174 -0.810778 -0.441951
rclavicle 5.16343e-014 1.59028e-015
rhumerus -26.5564 -8.20018 -74.0832
rradius 29.3294
rwrist 14.9434
rhand -21.1815 17.3537
rfingers 7.12502
rthumb 5.19907 -12.5625
lclavicle 5.16343e-014 1.59028e-015
lhumerus -22.1341 -11.3747 79.547
lradius 16.3993
lwrist 35.3866
lhand -39.226 38.4201
lfingers 7.12502
lthumb -12.2216 68.043
rfemur -3.86753 11.9088 25.4182
rtibia 23.7317
rfoot -11.7344 -10.2344
rtoes -12.7872
lfemur -30.287 2.22762 -14.6448
ltibia 48.9897
lfoot -8.20442 -4.5445
ltoes -18.8362
602
root 13.3373 18.0169 41.0538 -172.755 17.5786 -174.251
lowerback 9.60156 -0.400033 6.59023
upperback 2.31225 0.343023 0.842879
thorax -2.94768 0.216546 -2.87537
lowerneck -1.01526 -3.55818 1.19462
upperneck 24.2452 -3.14261 -0.0587241
head 7.57896 -0.691787 -0.337382
rclavicle -9.14409e-015 1.36167e-014
rhumerus -27.5808 -6.93711 -74.0268
rradius 30.0451
rwrist 14.4451
rhand -19.3024 6.95507
rfingers 7.12502
rthumb 7.01321 -22.9087
lclavicle -9.14409e-015 1.36167e-014
lhumerus -23.4133 -11.4381 79.9692
lradius 16.3709
lwrist 35.9005
lhand -39.4893 36.9148
lfingers 7.12502
lthumb -12.4754 66.5225
rfemur -3.83464 11.8483 25.2787
rtibia 23.9538
rfoot -11.6386 -10.4774
rtoes -13.6977
lfemur -30.6353 1.718 -14.8103
ltibia 46.689
lfoot -8.24554 -3.99358
ltoes -14.6364
603
root 13.3697 18.0222 40.9439 -172.803 16.7424 -174.6
lowerback 9.71956 -0.192653 6.43755
upperback 2.56014 0.606009 0.593036
thorax -2.72749 0.365389 -3.08118
lowerneck -2.09404 -3.71188 1.9359
upperneck 24.3927 -3.49099 -0.142039
head 7.80137 -0.813746 -0.531466
rclavicle -1.23246e-014 1.53064e-014
rhumerus -27.2883 -7.75672 -74.1029
rradius 30.7195
rwrist 14.2963
rhand -20.9879 14.9011
rfingers 7.12502
rthumb 5.38607 -15.0105
lclavicle -1.23246e-014 1.53064e-014
lhumerus -22.5239 -12.5102 79.9016
lradius 16.2498
lwrist 36.3332
lhand -40.4974 36.3203
lfingers 7.12502
lthumb -13.4473 65.8662
rfemur -3.44417 11.8465 25.1604
rtibia 23.9958
rfoot -11.6351 -11.043
rtoes -13.8702
lfemur -30.7449 0.932352 -15.0186
ltibia 44.178
lfoot -8.10708 -3.7992
ltoes -14.1787
604
root 13.3994 18.0349 40.8207 -172.956 15.7727 -174.664
lowerback 9.78816 -0.34608 6.51078
upperback 2.76019 0.428874 0.639099
thorax -2.57477 0.295303 -3.05329
lowerneck -2.5815 -3.58694 1.88189
upperneck 24.4216 -3.36165 -0.108864
head 7.90175 -0.763527 -0.510578
rclavicle -4.01545e-014 -1.25234e-014
rhumerus -27.0884 -7.44216 -74.1984
rradius 31.5615
rwrist 13.8489
rhand -22.2203 22.5666
rfingers 7.12502
rthumb 4.19608 -7.37177
lclavicle -4.01545e-014 -1.25234e-014
lhumerus -22.477 -12.577 80.0404
lradius 16.3958
lwrist 36.6967
lhand -32.6767 50.1106
lfingers 7.12502
lthumb -5.90206 80.0084
rfemur -2.71051 11.6952 25.3885
rtibia 23.873
rfoot -11.545 -11.6626
rtoes -14.2884
lfemur -30.5934 0.104626 -14.917
ltibia 41.4823
lfoot -7.38256 -3.56733
ltoes -14.5472
605
root 13.4346 18.0574 40.6991 -172.856 15.3529 -174.689
lowerback 9.82284 -0.447741 6.1693
upperback 2.30658 0.26553 0.922902
thorax -3.08704 0.179608 -2.5479
lowerneck -1.0877 -3.4532 1.06105
upperneck 23.9957 -3.00109 -0.00247139
head 7.51286 -0.635374 -0.286985
rclavicle 4.38444e-014 8.39865e-015
rhumerus -27.8583 -5.82648 -74.1559
rradius 32.3708
rwrist 12.913
rhand -22.9472 24.1978
rfingers 7.12502
rthumb 3.49409 -5.75331
lclavicle 4.38444e-014 8.39865e-015
lhumerus -23.9113 -12.0499 80.5754
lradius 16.3258
lwrist 36.998
lhand -35.3059 44.6662
lfingers 7.12502
lthumb -8.43995 74.4776
rfemur -2.19515 11.6456 25.4812
rtibia 23.5594
rfoot -11.2319 -11.8068
rtoes -15.0311
lfemur -30.5913 -0.332809 -14.7686
ltibia 38.6329
lfoot -6.79084 -3.29635
ltoes -12.1164
606
root 13.473 18.0898 40.5829 -172.367 15.6689 -174.691
lowerback 9.65093 -0.00289413 5.804
upperback 2.31428 0.797337 0.868973
thorax -2.94051 0.446849 -2.46126
lowerneck -1.68849 -3.55079 1.26392
upperneck 23.8578 -3.24707 0.0578168
head 7.56956 -0.754098 -0.327805
rclavicle 6.4605e-016 -2.49475e-014
rhumerus -27.5605 -5.93082 -74.3108
rradius 33.0246
rwrist 12.4073
rhand -22.9547 20.198
rfingers 7.12502
rthumb 3.48689 -9.75323
lclavicle 6.4605e-016 -2.49475e-014
lhumerus -23.6339 -12.4389 80.5983
lradius 16.0727
lwrist 36.8311
lhand -39.9185 28.8315
lfingers 7.12502
lthumb -12.8892 58.4135
rfemur -2.10815 11.7949 25.3147
rtibia 23.0073
rfoot -10.7778 -11.3445
rtoes -15.9552
lfemur -30.8837 -0.27929 -14.5997
ltibia 35.7316
lfoot -6.27723 -2.64957
ltoes -10.6718
607
root 13.4943 18.1092 40.4463 -172.51 14.5547 -174.772
lowerback 9.73887 -0.207174 6.0004
upperback 2.34636 0.557925 0.86486
thorax -2.97406 0.32968 -2.54824
lowerneck -1.69131 -3.47193 1.31159
upperneck 23.7745 -3.12532 -0.0189056
head 7.54056 -0.69964 -0.352416
rclavicle -1.73191e-014 -1.04362e-014
rhumerus -27.6022 -5.55258 -74.4322
rradius 33.902
rwrist 11.8807
rhand -22.3063 13.6123
rfingers 7.12502
rthumb 4.113 -16.3278
lclavicle -1.73191e-014 -1.04362e-014
lhumerus -23.8009 -12.5718 80.7706
lradius 15.9809
lwrist 36.1112
lhand -34.1566 18.3249
lfingers 7.12502
lthumb -7.33075 48.1779
rfemur -1.14287 11.6142 25.5572
rtibia 22.3077
rfoot -10.4879 -12.0511
rtoes -16.8075
lfemur -30.6558 -1.50743 -14.4089
ltibia 32.7836
lfoot -5.80033 -2.06759
ltoes -9.68845
608
root 13.5211 18.1211 40.3129 -172.48 14.0275 -174.694
lowerback 9.66558 -0.269781 6.05057
upperback 2.32783 0.48113 0.964572
thorax -2.96018 0.292506 -2.46287
lowerneck -1.48565 -3.33459 1.22022
upperneck 23.7059 -2.86857 -0.180438
head 7.48152 -0.593824 -0.369115
rclavicle -6.27041e-014 2.38542e-015
rhumerus -27.6871 -4.98741 -74.5165
rradius 34.6872
rwrist 11.3198
rhand -21.4781 9.33351
rfingers 7.12502
rthumb 4.91267 -20.5895
lclavicle -6.27041e-014 2.38542e-015
lhumerus -24.1309 -12.3925 81.0277
lradius 15.8345
lwrist 36.0211
lhand -32.0031 48.775
lfingers 7.12502
lthumb -5.25174 78.6899
rfemur -0.357498 11.6566 25.827
rtibia 21.6042
rfoot -9.83612 -12.427
rtoes -16.8523
lfemur -30.3706 -2.36087 -14.0255
ltibia 29.7967
lfoot -5.5878 -1.31431
ltoes -9.75739
609
root 13.548 18.1295 40.1786 -172.494 13.788 -174.678
lowerback 9.77818 -0.306354 5.96304
upperback 1.99592 0.432785 1.07592
thorax -3.37447 0.243705 -2.2938
lowerneck -0.350033 -3.2485 0.652078
upperneck 23.3617 -2.65902 0.00421176
head 7.18165 -0.509436 -0.18317
rclavicle 1.81764e-014 -2.96438e-014
rhumerus -28.2189 -4.10597 -74.5396
rradius 35.1559
rwrist 10.5517
rhand -20.8987 9.26813
rfingers 7.12502
rthumb 5.47217 -20.6412
lclavicle 1.81764e-014 -2.96438e-014
lhumerus -25.2696 -12.0681 81.3518
lradius 15.8371
lwrist 35.6627
lhand -39.8545 36.5304
lfingers 7.12502
lthumb -12.8275 66.1162
rfemur 0.571285 11.6704 25.9552
rtibia 20.8466
rfoot -9.21353 -12.4944
rtoes -16.9704
lfemur -30.0715 -3.27037 -13.6321
ltibia 26.9223
lfoot -5.20118 -0.190516
ltoes -9.63502
610
root 13.572 18.139 40.0433 -172.453 13.4275 -174.845
lowerback 9.70346 -0.359527 5.65728
upperback 2.10263 0.326486 1.09215
thorax -3.23254 0.201546 -2.09168
lowerneck -0.985416 -3.09348 0.563098
upperneck 23.3176 -2.51641 0.0391111
head 7.28109 -0.46919 -0.156905
rclavicle -5.30507e-015 8.34896e-015
rhumerus -27.7243 -3.81026 -74.6837
rradius 35.3193
rwrist 10.051
rhand -20.9934 10.9281
rfingers 7.12502
rthumb 5.38071 -18.9836
lclavicle -5.30507e-015 8.34896e-015
lhumerus -25.2442 -11.7541 81.29
lradius 15.72
lwrist 34.3471
lhand -40.5484 35.218
lfingers 7.12502
lthumb -13.4964 64.7607
rfemur 1.40416 11.5826 25.889
rtibia 20.044
rfoot -8.61974 -12.6493
rtoes -17.7878
lfemur -29.8719 -4.25587 -13.4515
ltibia 24.2041
lfoot -4.95002 1.02489
ltoes -11.1502
